
<svg xmlns="http://www.w3.org/2000/svg" version="1.1" xmlns:xlink="http://www.w3.org/1999/xlink" preserveAspectRatio="none" x="0px" y="0px" width="40px" height="40px" viewBox="0 0 40 40">
<defs>
<g id="Tween_3_0_Layer0_0_MEMBER_0_FILL">
<path fill="#FF00CF" stroke="none" d="
M 243.2 71.05
L 243.2 71 187.25 71 187.25 93.45
Q 187.25 98.65 188.75 102.85 190.25 107 193.1 109.9 195.95 112.75 200.15 114.25 204.3 115.75 209.65 115.75
L 243.2 115.75 243.2 115.7
Q 239.8 115.5 236.8 114.5 233.05 113.15 230.15 110.85 227.3 108.45 225.55 105.4
L 225.45 105.2 209.85 105.2
Q 198.15 105.2 198.15 93.25
L 198.15 81.6 225.4 81.6 225.55 81.35
Q 227.3 78.3 230.15 75.9 233.05 73.6 236.8 72.25 239.8 71.25 243.2 71.05 Z"/>
</g>

<g id="Tween_3_0_Layer0_0_MEMBER_1_FILL">
<path fill="#2BF0FF" stroke="none" d="
M 37.7 37.65
L 38.15 38.55 45.6 38.55 45.6 50.2
Q 45.6 62.15 33.9 62.15
L 20.4 62.15 20.2 62.6
Q 18.35 65.8 15.6 68 12.7 70.3 8.9 71.65 6.6 72.4 4.15 72.7
L 34.05 72.7
Q 39.5 72.7 43.6 71.2 47.8 69.7 50.65 66.85 53.45 63.95 55 59.8 56.45 55.75 56.45 50.4
L 56.45 27.9 24.05 27.95
Q 24.85 28.1 26.45 28.6 30.35 30 33.1 32.25 35.8 34.35 37.7 37.65 Z"/>
</g>
</defs>

<g transform="matrix( 1, 0, 0, 1, 20,20) ">
<g transform="matrix( 0.319976806640625, 0, 0, 0.319976806640625, -60.45,-29.8) ">
<use xlink:href="#Tween_3_0_Layer0_0_MEMBER_0_FILL"/>
</g>

<g transform="matrix( 0.319976806640625, 0, 0, 0.319976806640625, -18.65,-16.15) ">
<use xlink:href="#Tween_3_0_Layer0_0_MEMBER_1_FILL"/>
</g>
</g>
</svg>
