<svg width="110" height="45" viewBox="0 0 110 45" fill="none" xmlns="http://www.w3.org/2000/svg">
<path fill-rule="evenodd" clip-rule="evenodd" d="M53.89 4.57764e-05H109.826V0.0663185C107.543 0.216343 105.413 0.620899 103.436 1.28C100.919 2.176 98.7 3.392 96.78 4.928C94.9026 6.464 93.3666 8.27733 92.172 10.368C92.1243 10.453 92.0774 10.5384 92.031 10.624H64.77V22.272C64.77 30.2507 68.674 34.24 76.482 34.24H92.0658C92.1008 34.3042 92.1362 34.3682 92.172 34.432C93.3666 36.5227 94.9026 38.336 96.78 39.872C98.7 41.408 100.919 42.624 103.436 43.52C105.413 44.1791 107.543 44.5837 109.826 44.7337V44.8H76.29C72.706 44.8 69.5273 44.288 66.754 43.264C63.9807 42.2827 61.634 40.832 59.714 38.912C57.8367 36.992 56.386 34.6454 55.362 31.872C54.3807 29.0987 53.89 25.9627 53.89 22.464V4.57764e-05Z" fill="#FF00CF"/>
<path fill-rule="evenodd" clip-rule="evenodd" d="M0 34.2653C0.0676452 34.2573 0.134931 34.2488 0.201857 34.24H0V34.2653ZM19.7198 10.5628C19.7309 10.5832 19.742 10.6036 19.753 10.624H19.9291C19.8599 10.6031 19.7901 10.5827 19.7198 10.5628ZM35.5984 10.624H43.0141V22.272C43.0141 30.2507 39.1101 34.24 31.3021 34.24H17.8359C17.7629 34.3777 17.6884 34.5146 17.6121 34.6507C16.4175 36.7413 14.8815 38.5547 13.0041 40.0907C11.0841 41.6267 8.86547 42.8427 6.34813 43.7387C4.84625 44.2393 3.25626 44.5931 1.57815 44.8H31.4941C35.0781 44.8 38.2568 44.288 41.0301 43.264C43.8034 42.2827 46.1501 40.832 48.0701 38.912C49.9474 36.992 51.3981 34.6453 52.4221 31.872C53.4034 29.0987 53.8941 25.9627 53.8941 22.464V0L21.466 2.1513e-08C22.2917 0.180562 23.0937 0.400564 23.872 0.660005C26.3893 1.55601 28.608 2.77201 30.528 4.30801C32.4053 5.84401 33.9413 7.65734 35.136 9.748C35.2976 10.0365 35.4517 10.3285 35.5984 10.624Z" fill="#2BF0FF"/>
</svg>
