<svg width="22" height="96" viewBox="0 0 22 96" fill="none" xmlns="http://www.w3.org/2000/svg">
<path d="M1.06919 16H20.3035C20.4982 15.9994 20.6891 15.9457 20.8556 15.8447C21.0221 15.7436 21.1579 15.5991 21.2483 15.4267C21.3388 15.2542 21.3805 15.0603 21.369 14.8659C21.3574 14.6715 21.2931 14.484 21.1829 14.3234L11.5658 0.43197C11.1672 -0.14399 10.2076 -0.14399 9.80797 0.43197L0.190819 14.3234C0.0795002 14.4836 0.0142204 14.6713 0.00207188 14.866C-0.0100767 15.0607 0.0313707 15.2551 0.121911 15.4279C0.212451 15.6007 0.348621 15.7454 0.515627 15.8463C0.682632 15.9471 0.874085 16.0003 1.06919 16ZM10.6863 2.91747L18.2646 13.8629H3.10802L10.6863 2.91747Z" fill="black"/>
<path d="M10.4075 23.2219C10.4075 23.4336 10.4916 23.6366 10.6412 23.7862C10.7909 23.9359 10.9938 24.02 11.2055 24.02C11.4171 24.02 11.6201 23.9359 11.7698 23.7862C11.9194 23.6366 12.0035 23.4336 12.0035 23.2219C12.0035 23.0103 11.9194 22.8073 11.7698 22.6577C11.6201 22.508 11.4171 22.4239 11.2055 22.4239C10.9938 22.4239 10.7909 22.508 10.6412 22.6577C10.4916 22.8073 10.4075 23.0103 10.4075 23.2219ZM17.7292 30.2623L14.0843 20.8279V17.3566H15.5147V16H5.30025V17.3566H6.73067V20.8279L3.08579 30.2623C3.02993 30.41 3 30.5656 3 30.7232C3 31.4274 3.57257 32 4.27681 32H16.5381C16.6958 32 16.8514 31.9701 16.999 31.9142C17.6573 31.6608 17.9845 30.9207 17.7292 30.2623V30.2623ZM8.08728 21.0813V17.3965H12.7277V21.0813L14.5411 25.7756C14.1282 25.6698 13.7012 25.616 13.2663 25.616C12.0454 25.616 10.8883 26.0449 9.96857 26.813C9.28979 27.38 8.43309 27.6901 7.54863 27.6888C6.89626 27.6888 6.26982 27.5232 5.7172 27.216L8.08728 21.0813V21.0813ZM4.39252 30.6434L5.22444 28.4928C5.93666 28.8539 6.72868 29.0474 7.55062 29.0474C8.77157 29.0474 9.92867 28.6185 10.8484 27.8504C11.5247 27.2878 12.3706 26.9746 13.2683 26.9746C13.9666 26.9746 14.6329 27.1641 15.2155 27.5152L16.4224 30.6434H4.39252Z" fill="black"/>
<path d="M4.8958 32L4.04866 32.8459L5.30914 34.1058L6.15508 33.2599L4.8952 32H4.8958ZM15.9513 32L14.6909 33.2599L15.5374 34.1058L16.7973 32.8465L15.9507 32H15.9513ZM10.4233 32.3754C10.2247 32.3778 10.0238 32.3893 9.82161 32.4139C9.81559 32.4139 9.80957 32.4127 9.80356 32.4139C7.36322 32.6937 5.42105 34.6654 5.08352 37.0949C4.81397 39.0503 5.6202 40.8234 6.96371 41.9653C7.51328 42.4344 7.885 43.078 8.01662 43.7884V47.3983H9.38841C9.59779 47.7575 9.97984 48 10.4233 48C10.8667 48 11.2487 47.7575 11.4581 47.3983H12.8299V44.9917H12.8865V44.2769C12.8865 43.3949 13.3449 42.5056 14.0898 41.8143C15.0862 40.8168 15.8382 39.3998 15.8382 37.7723C15.8382 34.8001 13.3919 32.3478 10.4233 32.3754V32.3754ZM10.4233 33.5788C12.7487 33.5463 14.6349 35.4499 14.6349 37.7723C14.6349 39.0322 14.0513 40.1417 13.2433 40.9491L13.2625 40.9684C12.4595 41.7088 11.9403 42.7065 11.7945 43.789H9.16279C9.03042 42.7577 8.5882 41.7596 7.75249 41.0436C6.68935 40.1411 6.0558 38.7813 6.26759 37.2459C6.53052 35.3507 8.06836 33.8266 9.95277 33.6179C10.1083 33.5962 10.265 33.5833 10.4221 33.5794L10.4233 33.5788ZM2 37.7723V38.9757H3.80499V37.7723H2ZM17.0416 37.7723V38.9757H18.8465V37.7723H17.0416ZM5.30914 42.6422L4.04926 43.9015L4.8958 44.748L6.15448 43.4881L5.30914 42.6422ZM15.5374 42.6422L14.6915 43.4881L15.9507 44.748L16.7973 43.9015L15.5374 42.6422ZM9.21995 44.9923H11.6266V46.1956H9.21995V44.9923Z" fill="black"/>
<path fill-rule="evenodd" clip-rule="evenodd" d="M8.33336 56H6.31737C6.12169 56.3389 5.81966 56.6038 5.4581 56.7535C5.09654 56.9033 4.69567 56.9296 4.31765 56.8283C3.93964 56.727 3.60561 56.5038 3.36737 56.1933C3.12913 55.8829 3 55.5024 3 55.1111C3 54.7197 3.12913 54.3393 3.36737 54.0289C3.60561 53.7184 3.93964 53.4952 4.31765 53.3939C4.69567 53.2926 5.09654 53.3189 5.4581 53.4686C5.81966 53.6184 6.12169 53.8833 6.31737 54.2222H8.33336V49.7778C8.33336 49.3063 8.52066 48.8541 8.85406 48.5207C9.18746 48.1873 9.63964 48 10.1111 48H17.2222C17.6937 48 18.1459 48.1873 18.4793 48.5207C18.8127 48.8541 19 49.3063 19 49.7778V62.2222C19 62.6937 18.8127 63.1459 18.4793 63.4793C18.1459 63.8127 17.6937 64 17.2222 64H10.1111C9.63964 64 9.18746 63.8127 8.85406 63.4793C8.52066 63.1459 8.33336 62.6937 8.33336 62.2222V56ZM10.1111 56V62.2222H17.2222V49.7778H10.1111V54.2222H12.1271C12.3228 53.8833 12.6248 53.6184 12.9864 53.4686C13.348 53.3189 13.7488 53.2926 14.1268 53.3939C14.5049 53.4952 14.8389 53.7184 15.0771 54.0289C15.3154 54.3393 15.4445 54.7197 15.4445 55.1111C15.4445 55.5024 15.3154 55.8829 15.0771 56.1933C14.8389 56.5038 14.5049 56.727 14.1268 56.8283C13.7488 56.9296 13.348 56.9033 12.9864 56.7535C12.6248 56.6038 12.3228 56.3389 12.1271 56H10.1111Z" fill="black"/>
<path d="M7.8 64H14.2C15.473 64 16.6939 64.5057 17.5941 65.4059C18.4943 66.3061 19 67.527 19 68.8V75.2C19 76.473 18.4943 77.6939 17.5941 78.5941C16.6939 79.4943 15.473 80 14.2 80H7.8C6.52696 80 5.30606 79.4943 4.40589 78.5941C3.50571 77.6939 3 76.473 3 75.2V68.8C3 67.527 3.50571 66.3061 4.40589 65.4059C5.30606 64.5057 6.52696 64 7.8 64V64ZM7.8 65.6C6.95131 65.6 6.13737 65.9371 5.53726 66.5373C4.93714 67.1374 4.6 67.9513 4.6 68.8V75.2C4.6 76.0487 4.93714 76.8626 5.53726 77.4627C6.13737 78.0629 6.95131 78.4 7.8 78.4H14.2C15.0487 78.4 15.8626 78.0629 16.4627 77.4627C17.0629 76.8626 17.4 76.0487 17.4 75.2V68.8C17.4 67.9513 17.0629 67.1374 16.4627 66.5373C15.8626 65.9371 15.0487 65.6 14.2 65.6H7.8ZM12.6 71.2H15C15.2122 71.2 15.4157 71.2843 15.5657 71.4343C15.7157 71.5843 15.8 71.7878 15.8 72C15.8 72.2122 15.7157 72.4157 15.5657 72.5657C15.4157 72.7157 15.2122 72.8 15 72.8H12.6C12.3878 72.8 12.1843 72.7157 12.0343 72.5657C11.8843 72.4157 11.8 72.2122 11.8 72C11.8 71.7878 11.8843 71.5843 12.0343 71.4343C12.1843 71.2843 12.3878 71.2 12.6 71.2V71.2ZM11 74.4H15C15.2122 74.4 15.4157 74.4843 15.5657 74.6343C15.7157 74.7843 15.8 74.9878 15.8 75.2C15.8 75.4122 15.7157 75.6157 15.5657 75.7657C15.4157 75.9157 15.2122 76 15 76H11C10.7878 76 10.5843 75.9157 10.4343 75.7657C10.2843 75.6157 10.2 75.4122 10.2 75.2C10.2 74.9878 10.2843 74.7843 10.4343 74.6343C10.5843 74.4843 10.7878 74.4 11 74.4V74.4ZM11 68H15C15.2122 68 15.4157 68.0843 15.5657 68.2343C15.7157 68.3843 15.8 68.5878 15.8 68.8C15.8 69.0122 15.7157 69.2157 15.5657 69.3657C15.4157 69.5157 15.2122 69.6 15 69.6H11C10.7878 69.6 10.5843 69.5157 10.4343 69.3657C10.2843 69.2157 10.2 69.0122 10.2 68.8C10.2 68.5878 10.2843 68.3843 10.4343 68.2343C10.5843 68.0843 10.7878 68 11 68V68ZM7.6624 72.1944L9.36 70.496C9.43433 70.4217 9.52256 70.3628 9.61965 70.3226C9.71675 70.2825 9.8208 70.2618 9.92588 70.2618C10.031 70.2619 10.135 70.2826 10.2321 70.3229C10.3291 70.3631 10.4173 70.4221 10.4916 70.4964C10.5659 70.5707 10.6248 70.659 10.665 70.7561C10.7051 70.8531 10.7258 70.9572 10.7258 71.0623C10.7257 71.1674 10.705 71.2714 10.6647 71.3685C10.6245 71.4655 10.5655 71.5537 10.4912 71.628L8.2288 73.8904C8.1545 73.9648 8.06627 74.0238 7.96915 74.064C7.87203 74.1043 7.76793 74.125 7.6628 74.125C7.55767 74.125 7.45357 74.1043 7.35645 74.064C7.25933 74.0238 7.1711 73.9648 7.0968 73.8904L5.9656 72.76C5.81987 72.6091 5.73924 72.407 5.74106 72.1973C5.74288 71.9875 5.82702 71.7869 5.97535 71.6385C6.12367 71.4902 6.32432 71.4061 6.53408 71.4043C6.74384 71.4024 6.94592 71.4831 7.0968 71.6288L7.6624 72.1944V72.1944Z" fill="black"/>
<path d="M19 80H6V85H3V96H10V93H19V80ZM9 81H18V82H9V81ZM7 81H8V82H7V81ZM7 95H6V94H7V95ZM9 93H4V86H9V93ZM18 92H10V85H7V83H18V92Z" fill="black"/>
</svg>
