<svg width="22" height="96" viewBox="0 0 22 96" fill="none" xmlns="http://www.w3.org/2000/svg">
<path d="M1.06919 16H20.3035C20.4982 15.9994 20.6891 15.9457 20.8556 15.8447C21.0221 15.7436 21.1579 15.5991 21.2483 15.4267C21.3388 15.2542 21.3805 15.0603 21.369 14.8659C21.3574 14.6715 21.2931 14.484 21.1829 14.3234L11.5658 0.43197C11.1672 -0.14399 10.2076 -0.14399 9.80797 0.43197L0.190819 14.3234C0.0795002 14.4836 0.0142204 14.6713 0.00207188 14.866C-0.0100767 15.0607 0.0313707 15.2551 0.121911 15.4279C0.212451 15.6007 0.348621 15.7454 0.515627 15.8463C0.682632 15.9471 0.874085 16.0003 1.06919 16ZM10.6863 2.91747L18.2646 13.8629H3.10802L10.6863 2.91747Z" fill="black"/>
<path d="M18.2133 21.6341L13.1905 20.9041L10.9452 16.3521C10.8839 16.2275 10.783 16.1266 10.6584 16.0653C10.3458 15.911 9.96598 16.0396 9.8097 16.3521L7.56439 20.9041L2.54161 21.6341C2.40314 21.6538 2.27653 21.7191 2.17959 21.818C2.06241 21.9385 1.99783 22.1005 2.00006 22.2686C2.00228 22.4366 2.07113 22.5969 2.19146 22.7142L5.82551 26.2572L4.96695 31.2602C4.94681 31.3766 4.95969 31.4963 5.00412 31.6057C5.04855 31.7151 5.12276 31.8099 5.21832 31.8793C5.31388 31.9488 5.42698 31.99 5.54479 31.9984C5.6626 32.0068 5.78041 31.982 5.88485 31.9269L10.3775 29.5648L14.8701 31.9269C14.9927 31.9922 15.1351 32.0139 15.2716 31.9902C15.6159 31.9308 15.8473 31.6044 15.788 31.2602L14.9294 26.2572L18.5635 22.7142C18.6624 22.6172 18.7276 22.4906 18.7474 22.3522C18.8008 22.006 18.5595 21.6855 18.2133 21.6341V21.6341ZM13.4002 25.7587L14.1144 29.919L10.3775 27.9565L6.64055 29.9209L7.35469 25.7607L4.33193 22.8131L8.50999 22.2058L10.3775 18.4214L12.2449 22.2058L16.423 22.8131L13.4002 25.7587Z" fill="black"/>
<path fill-rule="evenodd" clip-rule="evenodd" d="M12.1053 35.3684V33.6842H8.73684V35.3684H12.1053ZM3.68421 37.0526V46.3158H17.1579V37.0526H3.68421ZM17.1579 35.3684C18.0926 35.3684 18.8421 36.1179 18.8421 37.0526V46.3158C18.8421 47.2505 18.0926 48 17.1579 48H3.68421C2.74947 48 2 47.2505 2 46.3158L2.00842 37.0526C2.00842 36.1179 2.74947 35.3684 3.68421 35.3684H7.05263V33.6842C7.05263 32.7495 7.80211 32 8.73684 32H12.1053C13.04 32 13.7895 32.7495 13.7895 33.6842V35.3684H17.1579Z" fill="black"/>
<path d="M2.51943 54.2016C1.84761 53.8177 1.84761 52.849 2.51943 52.4651L9.83719 48.2835C10.1446 48.1078 10.522 48.1078 10.8295 48.2835L18.1472 52.4651C18.8191 52.849 18.8191 53.8177 18.1472 54.2016L10.8295 58.3832C10.522 58.5588 10.1446 58.5588 9.83719 58.3832L2.51943 54.2016Z" stroke="black" stroke-linecap="round" stroke-linejoin="round"/>
<path d="M4.33334 55.3333V60.6667L10.3333 64L16.3333 60.6667V55.3333" stroke="black" stroke-linecap="round" stroke-linejoin="round"/>
<path d="M18.7778 60.6667V53.3333" stroke="black" stroke-linecap="round" stroke-linejoin="round"/>
<path d="M10.3333 58.6667V64" stroke="black" stroke-linecap="round" stroke-linejoin="round"/>
<path d="M18.7778 64H2.77778C1.8 64 1 64.8 1 65.7778V78.2222C1 79.2 1.8 80 2.77778 80H18.7778C19.7556 80 20.5556 79.2 20.5556 78.2222V65.7778C20.5556 64.8 19.7556 64 18.7778 64ZM18.7778 78.2222H2.77778V65.7778H18.7778V78.2222ZM7.22222 74.6667C7.22222 73.1911 8.41333 72 9.88889 72C10.2 72 10.5022 72.0622 10.7778 72.16V66.6667H15.2222V68.4444H12.5556V74.6933C12.5478 75.3957 12.2636 76.0668 11.7644 76.561C11.2652 77.0552 10.5913 77.3327 9.88889 77.3333C8.41333 77.3333 7.22222 76.1422 7.22222 74.6667Z" fill="black"/>
<path d="M21 82C21 80.9 20.1 80 19 80H3C1.9 80 1 80.9 1 82V94C1 95.1 1.9 96 3 96H19C20.1 96 21 95.1 21 94V82ZM19 82L11 87L3 82H19ZM19 94H3V84L11 89L19 84V94Z" fill="black"/>
</svg>
